<?xml version="1.0"?>
<svg width="20" height="20" xmlns="http://www.w3.org/2000/svg" xmlns:svg="http://www.w3.org/2000/svg">
 <g class="layer">
  <title>Layer 1</title>
  <g fill="none" fill-rule="evenodd" id="svg_1">
   <circle cx="10" cy="10" fill="#003f7f" id="svg_2" r="10"/>
   <path d="m10,7.46a4.81,4.81 0 0 1 4.33,2.67a4.81,4.81 0 0 1 -4.33,2.68a4.81,4.81 0 0 1 -4.33,-2.68a4.81,4.81 0 0 1 4.33,-2.67zm0,-0.97a5.81,5.81 0 0 0 -5.41,3.65a5.81,5.81 0 0 0 5.41,3.64a5.81,5.81 0 0 0 5.41,-3.65a5.81,5.81 0 0 0 -5.41,-3.64zm0,2.43c0.68,0 1.23,0.54 1.23,1.21c0,0.68 -0.55,1.22 -1.23,1.22a1.22,1.22 0 0 1 -1.23,-1.22c0,-0.67 0.55,-1.21 1.23,-1.21zm0,-0.97c-1.22,0 -2.21,0.98 -2.21,2.19c0,1.2 0.99,2.18 2.21,2.18c1.22,0 2.21,-0.98 2.21,-2.18c0,-1.21 -0.99,-2.19 -2.21,-2.19z" fill="#FFF" fill-rule="nonzero" id="svg_3"/>
  </g>
 </g>
</svg>